<?xml version="1.0" encoding="UTF-8"?><!DOCTYPE svg PUBLIC "-//W3C//DTD SVG 1.1//EN" "http://www.w3.org/Graphics/SVG/1.1/DTD/svg11.dtd"><svg xmlns="http://www.w3.org/2000/svg" xmlns:xlink="http://www.w3.org/1999/xlink"><defs>
<linearGradient id="paint0_linear_16_5946" x1="-0.366643" y1="-3.74999" x2="17.3599" y2="27.796" gradientUnits="userSpaceOnUse">
<stop stop-color="#00D5C7"/>
<stop offset="1" stop-color="#FFEE57"/>
</linearGradient>

<linearGradient id="paint0_linear_6390_842" x1="29.5342" y1="-2.8125" x2="43.0343" y2="20.5" gradientUnits="userSpaceOnUse">
<stop stop-color="#00D5C7"/>
<stop offset="1" stop-color="#FFEE57"/>
</linearGradient>
<clipPath id="clip0_6390_842">
<rect width="18" height="18" fill="white" transform="translate(29.5342)"/>
</clipPath>
</defs><symbol id="arrow_button" viewBox="0 0 24 24">
<path fill-rule="evenodd" clip-rule="evenodd" d="M11.4697 5.46967C11.7626 5.17678 12.2374 5.17678 12.5303 5.46967L18.5303 11.4697C18.8232 11.7626 18.8232 12.2374 18.5303 12.5303L12.5303 18.5303C12.2374 18.8232 11.7626 18.8232 11.4697 18.5303C11.1768 18.2374 11.1768 17.7626 11.4697 17.4697L16.1893 12.75H6C5.58579 12.75 5.25 12.4142 5.25 12C5.25 11.5858 5.58579 11.25 6 11.25H16.1893L11.4697 6.53033C11.1768 6.23744 11.1768 5.76256 11.4697 5.46967Z" fill="#000B26" fill-opacity="0.72"/>
</symbol><symbol id="arrow_left" viewBox="0 0 24 24">
<path fill-rule="evenodd" clip-rule="evenodd" d="M14.5303 18.5303C14.2374 18.8232 13.7626 18.8232 13.4697 18.5303L7.46967 12.5303C7.17678 12.2374 7.17678 11.7626 7.46967 11.4697L13.4697 5.46967C13.7626 5.17678 14.2374 5.17678 14.5303 5.46967C14.8232 5.76256 14.8232 6.23744 14.5303 6.53033L9.06066 12L14.5303 17.4697C14.8232 17.7626 14.8232 18.2374 14.5303 18.5303Z" fill="#000B26" fill-opacity="0.72"/>
</symbol><symbol id="arrow_right" viewBox="0 0 24 24">
<path fill-rule="evenodd" clip-rule="evenodd" d="M8.46967 5.46967C8.76256 5.17678 9.23744 5.17678 9.53033 5.46967L15.5303 11.4697C15.8232 11.7626 15.8232 12.2374 15.5303 12.5303L9.53033 18.5303C9.23744 18.8232 8.76256 18.8232 8.46967 18.5303C8.17678 18.2374 8.17678 17.7626 8.46967 17.4697L13.9393 12L8.46967 6.53033C8.17678 6.23744 8.17678 5.76256 8.46967 5.46967Z" fill="#000B26" fill-opacity="0.72"/>
</symbol><symbol id="back" viewBox="0 0 8 14">
<path fill-rule="evenodd" clip-rule="evenodd" d="M7.53033 13.5303C7.23744 13.8232 6.76256 13.8232 6.46967 13.5303L0.46967 7.53033C0.176777 7.23744 0.176777 6.76256 0.46967 6.46967L6.46967 0.46967C6.76256 0.176777 7.23744 0.176777 7.53033 0.46967C7.82322 0.762564 7.82322 1.23744 7.53033 1.53033L2.06066 7L7.53033 12.4697C7.82322 12.7626 7.82322 13.2374 7.53033 13.5303Z" fill="#5780EA"/>
</symbol><symbol id="call" viewBox="0 0 24 24">
<path fill-rule="evenodd" clip-rule="evenodd" d="M6.5325 3.61307C6.21421 3.83674 5.73913 4.23444 5.16024 4.91438C4.48981 5.70184 4.08498 6.63876 4.10421 7.58059C4.14871 9.76028 5.15893 12.8115 8.17459 15.8272C11.2612 18.9138 14.3229 19.9083 16.4923 19.9154C17.3875 19.9183 18.2749 19.529 19.0295 18.8935C19.7348 18.2994 20.15 17.8033 20.3836 17.471C20.3777 17.4582 20.3641 17.4364 20.3347 17.4129L17.0179 14.7594C16.9184 14.6798 16.775 14.6878 16.685 14.7779L16.052 15.4108C15.1895 16.2733 13.803 16.5045 12.7311 15.7711C10.8957 14.5154 9.42306 13.0092 8.22991 11.2697C7.49172 10.1934 7.72445 8.79816 8.59617 7.93396L9.22085 7.31467C9.31161 7.2247 9.3199 7.08075 9.24006 6.98096L6.57993 3.6558C6.56428 3.63624 6.54884 3.6234 6.53671 3.61564C6.53523 3.6147 6.53383 3.61384 6.5325 3.61307ZM4.01811 3.94199C4.68646 3.15697 5.264 2.66771 5.6962 2.36754C6.43833 1.85211 7.30361 2.15923 7.75124 2.71876L10.4114 6.04391C10.9702 6.74248 10.9122 7.75008 10.2769 8.37992L9.65223 8.9992C9.23923 9.40864 9.18185 10.0056 9.4669 10.4212C10.5592 12.0137 11.9013 13.3859 13.5781 14.5331C13.9903 14.8151 14.5824 14.7591 14.9913 14.3501L15.6243 13.7172C16.2548 13.0867 17.2586 13.0311 17.9549 13.5881L21.2718 16.2416C21.8409 16.6969 22.1415 17.5735 21.622 18.3176C21.3114 18.7624 20.8047 19.3594 19.9958 20.0407C19.0433 20.8429 17.8239 21.4198 16.4874 21.4154C13.8678 21.4068 10.4399 20.2138 7.11393 16.8879C3.85533 13.6293 2.65777 10.2196 2.60452 7.61121C2.57603 6.21564 3.17298 4.93464 4.01811 3.94199Z" fill="#000B26" fill-opacity="0.32"/>
</symbol><symbol id="checkbox" viewBox="0 0 12 9">
<path fill-rule="evenodd" clip-rule="evenodd" d="M11.7574 0.197712C12.0624 0.477952 12.0825 0.9524 11.8023 1.25742L4.91167 8.75742C4.77168 8.90979 4.57497 8.99755 4.36808 8.99995C4.16119 9.00235 3.96249 8.91918 3.81901 8.77011L0.209636 5.02011C-0.0776084 4.72167 -0.068536 4.24688 0.229899 3.95964C0.528335 3.67239 1.00312 3.68147 1.29037 3.9799L4.34667 7.15528L10.6977 0.242586C10.9779 -0.0624367 11.4524 -0.0825274 11.7574 0.197712Z" fill="white"/>
</symbol><symbol id="currency" viewBox="0 0 24 24">
<rect width="24" height="24" rx="12" fill="url(#paint0_linear_16_5946)"/>
<path d="M8 18H16V16.1777H10.2149V12.9023H15.5403V11.0801H10.2149V7.82227H15.9522V6H8V18Z" fill="white"/>
<rect x="11" y="4" width="2" height="2" fill="white"/>
<rect x="11" y="18" width="2" height="2" fill="white"/>

</symbol><symbol id="keyboard_arrow_down" viewBox="0 0 24 24">
<path d="M6.70538 9.29461C7.09466 8.90534 7.72569 8.905 8.11538 9.29384L12 13.17L15.8846 9.29384C16.2743 8.90499 16.9053 8.90534 17.2946 9.29461C17.6842 9.68418 17.6842 10.3158 17.2946 10.7054L12.7071 15.2929C12.3166 15.6834 11.6834 15.6834 11.2929 15.2929L6.70538 10.7054C6.31581 10.3158 6.31581 9.68418 6.70538 9.29461Z"/>
</symbol><symbol id="location" viewBox="0 0 24 24">
<path fill-rule="evenodd" clip-rule="evenodd" d="M12 12C13.1046 12 14 11.1046 14 10C14 8.89543 13.1046 8 12 8C10.8954 8 10 8.89543 10 10C10 11.1046 10.8954 12 12 12ZM12 13.5C13.933 13.5 15.5 11.933 15.5 10C15.5 8.067 13.933 6.5 12 6.5C10.067 6.5 8.5 8.067 8.5 10C8.5 11.933 10.067 13.5 12 13.5Z" fill="#000B26" fill-opacity="0.72"/>
<path fill-rule="evenodd" clip-rule="evenodd" d="M16.1185 16.1287C17.4819 14.3107 18.5 12.159 18.5 9.80488C18.5 6.35749 15.625 3.5 12 3.5C8.37502 3.5 5.5 6.35749 5.5 9.80488C5.5 12.159 6.51813 14.3107 7.88146 16.1287C9.24149 17.9424 10.8671 19.3181 11.8832 20.0846C11.9274 20.118 11.9675 20.1275 12 20.1275C12.0325 20.1275 12.0726 20.118 12.1168 20.0846C13.1329 19.3181 14.7585 17.9424 16.1185 16.1287ZM13.0201 21.2821C15.1763 19.6555 20 15.392 20 9.80488C20 5.49436 16.4183 2 12 2C7.58172 2 4 5.49436 4 9.80488C4 15.392 8.82374 19.6555 10.9799 21.2821C11.5904 21.7427 12.4096 21.7427 13.0201 21.2821Z" fill="#000B26" fill-opacity="0.72"/>
</symbol><symbol id="login" viewBox="0 0 24 24">
<path fill-rule="evenodd" clip-rule="evenodd" d="M6.75 2.25C4.67893 2.25 3 3.92893 3 6V18C3 20.0711 4.67893 21.75 6.75 21.75H12.75C14.8211 21.75 16.5 20.0711 16.5 18V17C16.5 16.5858 16.1642 16.25 15.75 16.25C15.3358 16.25 15 16.5858 15 17V18C15 19.2426 13.9926 20.25 12.75 20.25H6.75C5.50736 20.25 4.5 19.2426 4.5 18V6C4.5 4.75736 5.50736 3.75 6.75 3.75H12.75C13.9926 3.75 15 4.75736 15 6V7C15 7.41421 15.3358 7.75 15.75 7.75C16.1642 7.75 16.5 7.41421 16.5 7V6C16.5 3.92893 14.8211 2.25 12.75 2.25H6.75ZM11.7803 9.53033C12.0732 9.23744 12.0732 8.76256 11.7803 8.46967C11.4874 8.17678 11.0126 8.17678 10.7197 8.46967L7.71967 11.4697C7.42678 11.7626 7.42678 12.2374 7.71967 12.5303L10.7197 15.5303C11.0126 15.8232 11.4874 15.8232 11.7803 15.5303C12.0732 15.2374 12.0732 14.7626 11.7803 14.4697L10.0607 12.75H20.25C20.6642 12.75 21 12.4142 21 12C21 11.5858 20.6642 11.25 20.25 11.25H10.0607L11.7803 9.53033Z" fill="#000B26" fill-opacity="0.72"/>
</symbol><symbol id="logo" viewBox="0 0 94 18">
<path d="M10.9672 16.7217V13.8232H3.29944V10.3217H10.8045V7.42319H3.29944V4.15362H10.9672V1.25507H0V16.7217H10.9672Z" fill="#000B26" fill-opacity="0.72"/>
<path d="M21.0515 17C24.4672 17 26.4189 15.1217 27.5342 13.1971L24.6995 11.829C24.0489 13.1043 22.6548 14.0783 21.0515 14.0783C18.24 14.0783 16.1953 11.9217 16.1953 9C16.1953 6.07826 18.24 3.92174 21.0515 3.92174C22.6548 3.92174 24.0489 4.91884 24.6995 6.17101L27.5342 4.77971C26.4422 2.85507 24.4672 1 21.0515 1C16.4044 1 12.8029 4.24638 12.8029 9C12.8029 13.7536 16.4044 17 21.0515 17Z" fill="#000B26" fill-opacity="0.72"/>
<g clip-path="url(#clip0_6390_842)">
<path d="M32.5421 13.1004C32.5421 13.1004 33.8039 16.8843 38.5342 18.0001V16.5937C43.3575 16.5937 47.2675 13.5561 47.2675 8.73321C47.2675 3.91037 43.3575 0 38.5342 0C33.7116 0 29.801 3.91037 29.801 8.73321C29.801 9.16482 29.8334 9.58853 29.8934 10.0032C30.4693 6.30502 33.6744 3.41975 38.3158 2.50143C38.3532 2.0152 38.3907 1.52759 38.4337 0.97294C42.2236 1.65606 44.3561 5.66996 44.3561 5.66996C44.3561 5.66996 42.5124 9.00009 38.5907 10.2123L38.5976 8.27855C34.0518 9.73452 32.5421 13.1004 32.5421 13.1004Z" fill="url(#paint0_linear_6390_842)"/>
</g>
<path d="M62.0813 16.7101L58.596 10.8203C60.269 10.4261 61.9884 8.96522 61.9884 6.22899C61.9884 3.35363 60.0134 1.24348 56.7837 1.24348H49.5342V16.7101H52.8336V11.2145H55.2501L58.294 16.7101H62.0813ZM56.2957 8.31594H52.8336V4.14203H56.2957C57.6201 4.14203 58.6193 4.93044 58.6193 6.22899C58.6193 7.52754 57.6201 8.31594 56.2957 8.31594Z" fill="#000B26" fill-opacity="0.72"/>
<path d="M71.4587 16.9884C76.1755 16.9884 78.4526 14.3681 78.4526 10.5188V1.24348H75.0834V10.4261C75.0834 12.5826 73.8519 14.0667 71.4587 14.0667C69.0654 14.0667 67.8107 12.5826 67.8107 10.4261V1.24348H64.4648V10.542C64.4648 14.3449 66.7419 16.9884 71.4587 16.9884Z" fill="#000B26" fill-opacity="0.72"/>
<path d="M87.0125 16.9884C91.1949 16.9884 93.2164 14.8551 93.2164 12.0261C93.2164 6.25218 84.3172 7.89855 84.3172 5.44058C84.3172 4.51305 85.1072 3.88696 86.5245 3.88696C88.1046 3.88696 89.7775 4.42029 91.0322 5.57971L92.8678 3.16812C91.3343 1.75363 89.2896 1.0116 86.8266 1.0116C83.1786 1.0116 80.948 3.14493 80.948 5.71884C80.948 11.5391 89.8705 9.66087 89.8705 12.3971C89.8705 13.2783 88.9875 14.113 87.1751 14.113C85.0375 14.113 83.3413 13.1623 82.2492 12.0261L80.4601 14.5304C81.9007 15.9913 84.0383 16.9884 87.0125 16.9884Z" fill="#000B26" fill-opacity="0.72"/>

</symbol><symbol id="mail" viewBox="0 0 24 24">
<path fill-rule="evenodd" clip-rule="evenodd" d="M5 5.5H19C19.6497 5.5 20.203 5.91311 20.4114 6.49099L13.2481 11.2666C12.4923 11.7704 11.5077 11.7704 10.7519 11.2666L3.58857 6.49099C3.79701 5.91311 4.35026 5.5 5 5.5ZM3.5 8.23472V17C3.5 17.8284 4.17157 18.5 5 18.5H19C19.8284 18.5 20.5 17.8284 20.5 17V8.23472L14.0801 12.5146C12.8205 13.3544 11.1795 13.3544 9.91987 12.5146L3.5 8.23472ZM2 7C2 5.34315 3.34315 4 5 4H19C20.6569 4 22 5.34315 22 7V17C22 18.6569 20.6569 20 19 20H5C3.34315 20 2 18.6569 2 17V7Z" fill="#000B26" fill-opacity="0.32"/>
</symbol><symbol id="search" viewBox="0 0 16 16">
<path fill-rule="evenodd" clip-rule="evenodd" d="M11.625 7.125C11.625 9.61028 9.61028 11.625 7.125 11.625C4.63972 11.625 2.625 9.61028 2.625 7.125C2.625 4.63972 4.63972 2.625 7.125 2.625C9.61028 2.625 11.625 4.63972 11.625 7.125ZM10.8042 11.8649C9.78822 12.6547 8.51153 13.125 7.125 13.125C3.81129 13.125 1.125 10.4387 1.125 7.125C1.125 3.81129 3.81129 1.125 7.125 1.125C10.4387 1.125 13.125 3.81129 13.125 7.125C13.125 8.51153 12.6547 9.78822 11.8649 10.8042L14.6553 13.5947C14.9482 13.8876 14.9482 14.3624 14.6553 14.6553C14.3624 14.9482 13.8876 14.9482 13.5947 14.6553L10.8042 11.8649Z" fill="#000B26" fill-opacity="0.48"/>
</symbol></svg>